# xmcd
#
# Track frame offsets:
#	205
#	19587
#	39782
#	56040
#	90200
#	111320
#	131450
#	168647
#	182827
#
# Disc length: 2938 seconds
# Revision: 0
# Processed by: cddbd v1.5.2PL0 Copyright (c) Steve Scherf et al.
# Submitted via: dBpowerAMP V12.0
#
DISCID=6a0b7809
DTITLE=Various Artist - Finally Getting Paid
DYEAR=1988
DGENRE=Soul
TTITLE0=Bobby Byrd - I Need Help
TTITLE1=Lynn Collins - Think
TTITLE2=Marva Whitney - It's My Thing
TTITLE3=Carleen Anderson - Free
TTITLE4=Vicki ANderson - Respect
TTITLE5=Fred Wesley - House Party
TTITLE6=The J.B.'s - In The Niddle
TTITLE7=Bobby Byrd - I Know You Got Soul
TTITLE8=Maceo Parker - Soul Power-Cross The Track
EXTD=
EXTT0=
EXTT1=
EXTT2=
EXTT3=
EXTT4=
EXTT5=
EXTT6=
EXTT7=
EXTT8=
PLAYORDER=
